<?xml version="1.0" encoding="UTF-8"?>
<svg id="Layer_2" data-name="Layer 2" xmlns="http://www.w3.org/2000/svg" viewBox="0 0 374.02 129.91">
  <g id="Layer_1-2" data-name="Layer 1">
    <g>
      <g>
        <path d="m373.48,48.16c.36-.72.54-1.44.54-2.25,0-1.98-1.08-3.87-2.97-4.77-.72-.36-1.53-.54-2.25-.54-1.98,0-3.87,1.17-4.76,3.06l-10.16,21.49-10.25-21.49c-.9-1.89-2.79-3.06-4.77-3.06-.72,0-1.53.18-2.25.54-1.89.9-2.97,2.79-2.97,4.77,0,.81.18,1.53.54,2.25l13.76,29.04-8.54,18.97c-.36.72-.45,1.44-.45,2.16,0,1.98,1.08,3.96,2.97,4.77.72.36,1.53.45,2.25.45,1.98,0,3.87-1.08,4.76-3.06l8.99-19.87.63-.99,14.92-31.47Zm-52.23-7.55h-5.3v-15.73c0-2.88-2.34-5.21-5.21-5.21s-5.21,2.34-5.21,5.21v15.73h-5.3c-2.88,0-5.21,2.34-5.21,5.3s2.34,5.21,5.21,5.21h5.3v26.25c0,2.88,2.34,5.21,5.21,5.21s5.21-2.34,5.21-5.21v-26.25h5.3c2.88,0,5.21-2.34,5.21-5.21s-2.34-5.3-5.21-5.3Zm-38.66,0h-5.3v-15.73c0-2.88-2.34-5.21-5.21-5.21s-5.21,2.34-5.21,5.21v15.73h-5.3c-2.88,0-5.21,2.34-5.21,5.3s2.34,5.21,5.21,5.21h5.3v26.25c0,2.88,2.34,5.21,5.21,5.21s5.21-2.34,5.21-5.21v-26.25h5.3c2.88,0,5.21-2.34,5.21-5.21s-2.34-5.3-5.21-5.3Zm-38.75,41.99c2.88,0,5.3-2.34,5.3-5.21v-31.47c0-2.88-2.43-5.3-5.3-5.3s-5.21,2.43-5.21,5.3v31.47c0,2.88,2.34,5.21,5.21,5.21Zm-25.98-20.95l12.05-12.05c.99-.99,1.53-2.34,1.53-3.69s-.54-2.7-1.53-3.78c-1.08-.99-2.34-1.44-3.69-1.44s-2.7.45-3.69,1.44l-14.65,14.65v-31.92c0-2.88-2.43-5.21-5.3-5.21s-5.21,2.34-5.21,5.21v52.5c0,2.88,2.34,5.21,5.21,5.21s5.3-2.34,5.3-5.21v-10.97l14.65,14.65c.99.99,2.34,1.53,3.69,1.53s2.7-.54,3.69-1.53c.99-.99,1.53-2.34,1.53-3.69s-.36-2.61-1.53-3.78l-12.05-11.96Zm-32.99-41.99c-2.88,0-5.21,2.34-5.21,5.21v52.5c0,2.88,2.34,5.21,5.21,5.21s5.3-2.34,5.3-5.21V24.88c0-2.88-2.34-5.21-5.3-5.21Zm-12.4,7.91c0-2.88-2.43-5.21-5.3-5.21s-5.21,2.34-5.21,5.21,2.34,5.3,5.21,5.3,5.3-2.34,5.3-5.3Zm-5.3,55.02c2.88,0,5.3-2.34,5.3-5.21v-31.47c0-2.88-2.43-5.3-5.3-5.3s-5.21,2.43-5.21,5.3v31.47c0,2.88,2.34,5.21,5.21,5.21Zm-17.71,0c2.97,0,5.3-2.34,5.3-5.21V24.88c0-2.79-2.25-5.21-5.3-5.21-1.62,0-3.15.72-4.13,2.07l-19.42,25.89-19.42-25.89c-.99-1.35-2.52-2.07-4.14-2.07-3.06,0-5.3,2.43-5.3,5.21v52.5c0,2.88,2.34,5.21,5.21,5.21s5.3-2.34,5.3-5.21v-36.77l14.12,18.88c.99,1.35,2.61,2.16,4.23,2.16s3.24-.81,4.23-2.16l14.12-18.88v36.77c0,2.88,2.34,5.21,5.21,5.21Z" stroke-width="0"/>
        <path d="m228.06,105.06c.43-1.08.84-2.1,1.23-3.07.39-.96.79-1.96,1.21-3,.22.58.43,1.12.62,1.61.19.5.38.98.57,1.46.19.48.37.96.57,1.44.19.48.39,1,.6,1.56h-4.79Zm2.89-7.65h-.89l-5.05,12.57h1.12c.23-.62.49-1.27.77-1.95.28-.68.55-1.34.8-1.97h5.54l1.55,3.92h1.08l-4.92-12.57Zm-9.32,11.57h-7.57v-5.05h7.06v-.99h-7.06v-4.53h7.49v-.99h-8.49v12.57h8.56v-.99Zm-12.57-11.57h-9.48v.99h4.25v11.57h.98v-11.57h4.25v-.99Zm-23.07,10.12c-.33.62-.71,1.06-1.17,1.33-.45.27-.99.41-1.62.41-.72,0-1.34-.2-1.85-.61-.53-.42-.8-.96-.8-1.64s.3-1.33.91-1.92c.13-.12.33-.28.6-.5.27-.21.63-.46,1.07-.72l2.86,3.64Zm-1.36-5.91l-.51.44c-.21.16-.46.35-.75.56-.27-.35-.47-.61-.6-.79l-.25-.32c-.38-.57-.58-1.03-.58-1.38,0-.47.17-.83.5-1.1.33-.27.74-.4,1.23-.4s.88.14,1.21.42c.33.28.5.65.5,1.1,0,.5-.25.99-.75,1.48Zm2.49,5.79c.14-.37.26-.85.36-1.45.1-.59.16-1.25.18-1.99h-.98c-.02.55-.06,1.03-.1,1.45-.04.42-.1.77-.18,1.06-.23-.3-.45-.58-.65-.84-.2-.26-.4-.51-.59-.75-.19-.24-.39-.49-.59-.74-.2-.25-.42-.52-.64-.81.39-.28.71-.51.96-.7.24-.19.41-.34.5-.43.63-.63.94-1.32.94-2.07s-.26-1.35-.78-1.81c-.52-.45-1.16-.68-1.9-.68-.36,0-.7.06-1.02.17-.32.11-.61.28-.86.52s-.45.5-.59.8c-.14.3-.21.64-.21,1.01,0,.56.23,1.17.68,1.83l.17.22.17.2.25.36.27.37c-.41.27-.76.52-1.06.75s-.55.45-.75.65c-.75.78-1.13,1.62-1.13,2.51,0,.94.38,1.73,1.15,2.37v-.02c.7.58,1.52.87,2.47.87.77,0,1.43-.15,1.98-.44.55-.3,1.03-.77,1.44-1.42l1.26,1.59h1.24l-1.99-2.56Zm-21.12-3.8c-.33-.08-.67-.17-1.02-.25-.35-.09-.69-.17-1.02-.25-.33-.09-.65-.18-.98-.25-.33-.08-.65-.16-.98-.25h.02c-1.24-.38-1.87-1.08-1.87-2.07,0-.83.34-1.45,1.03-1.87.58-.36,1.36-.54,2.34-.54,2.28,0,3.45,1.09,3.52,3.28h.99c-.12-2.85-1.62-4.27-4.51-4.27-1.22,0-2.2.24-2.93.71-.95.61-1.43,1.51-1.43,2.68,0,1.42.75,2.39,2.25,2.93.56.13,1.12.26,1.68.41.56.15,1.11.29,1.65.43l.33.09.33.09h-.02c1.24.42,1.87,1.16,1.87,2.23,0,.41-.1.78-.29,1.11-.19.33-.46.61-.79.85-.65.41-1.45.61-2.4.61-2.64,0-3.96-1.3-3.96-3.89h-.99c0,1.72.46,2.98,1.39,3.78.44.36.95.63,1.53.82.58.19,1.25.28,2.02.28.58,0,1.12-.07,1.63-.21.51-.14.96-.34,1.37-.59.48-.33.84-.72,1.1-1.18.26-.46.38-.98.38-1.56,0-1.52-.75-2.56-2.25-3.1Zm-8.73,5.37h-7.57v-5.05h7.06v-.99h-7.06v-4.53h7.49v-.99h-8.49v12.57h8.56v-.99Zm-13.18-11.57h-.99v12.57h.99v-12.57Zm-4.9,0h-9.48v.99h4.25v11.57h.98v-11.57h4.25v-.99Zm-12.86,0h-9.48v.99h4.25v11.57h.98v-11.57h4.25v-.99Zm-13.47,0h-.99v12.57h.99v-12.57Zm-11.22,5.44l6.1-5.44h-1.48c-1.28,1.13-2.56,2.26-3.86,3.41-1.3,1.15-2.58,2.29-3.86,3.43v-6.83h-.99v12.57h.99v-4.41c.41-.37.8-.72,1.17-1.06.37-.33.76-.68,1.17-1.04l5.73,6.5h1.32l-6.29-7.13Z" stroke-width="0"/>
        <polyline points="241.67 103.87 330.27 103.87 330.27 103.21 241.67 103.21" stroke-width="0"/>
        <circle cx="244.2" cy="32.23" r="5.13" stroke-width="0"/>
        <circle cx="237.2" cy="26.99" r="2.75" transform="translate(36.31 155.96) rotate(-39.19)" stroke-width="0"/>
        <circle cx="244.26" cy="23.16" r="3.12" transform="translate(81.41 206.67) rotate(-53.83)" stroke-width="0"/>
        <circle cx="251.15" cy="26.66" r="2.75" stroke-width="0"/>
      </g>
      <circle cx="61.65" cy="112.01" r="9.69" transform="translate(-47.89 46.08) rotate(-30.13)" stroke-width="0"/>
      <circle cx="68.83" cy="97.69" r="4.63" transform="translate(-30.22 30.84) rotate(-20.82)" stroke-width="0"/>
      <circle cx="45.49" cy="108.64" r="5.2" stroke-width="0"/>
      <circle cx="54.51" cy="96.43" r="5.9" transform="translate(-12.85 8.49) rotate(-7.97)" stroke-width="0"/>
      <path d="m80.99.17c-2.44-.27-7.07-.45-12.39,1.44-4.85,1.72-8.14,4.39-9.95,6.13-5.33-2.5-11.38-3.92-17.79-3.92h-.31c-1.59-.11-9.63-.51-18.26,3.48-1.89-1.72-5.03-4.11-9.48-5.69C7.48-.29,2.85-.1.41.17-.06,3.8-.32,9.01.74,15.11c.8,4.62,2.15,8.47,3.45,11.45-2.38,6.03-2.61,11.2-2.65,12.85v20.41h0v47.74c0,12.35,10.01,22.36,22.36,22.36h33.62c12.35,0,22.36-10.01,22.36-22.36v-32.27h0s0-35.88,0-35.88c0-4.54-.94-8.89-2.65-12.88,1.3-2.97,2.63-6.81,3.43-11.42,1.06-6.1.79-11.3.33-14.94Zm-23.23,26.35c2.44,0,4.41,1.98,4.41,4.41s-1.98,4.41-4.41,4.41-4.41-1.98-4.41-4.41,1.98-4.41,4.41-4.41Zm-24.14,13.32c.23-.09.51.66,1.13,1.04.77.47,2.16.42,4.84-1.34v-4.1l-3.26-2.15c-.26-.17-.38-.49-.29-.79.09-.3.37-.5.68-.5h6.68c.3,0,.57.19.67.48.1.29,0,.61-.24.79l-2.83,2.15v.02s0,4.15,0,4.15c2.66,1.67,3.99,1.68,4.72,1.21.68-.44.87-1.33,1.13-1.26.35.09.56,1.9-.18,2.66-.94.97-3.49.36-6.4-1.4-2.75,1.81-5.24,2.48-6.24,1.53-.74-.7-.73-2.36-.41-2.48Zm-10.54-13.32c2.44,0,4.41,1.98,4.41,4.41s-1.98,4.41-4.41,4.41-4.41-1.98-4.41-4.41,1.98-4.41,4.41-4.41Zm52.55,81.04c0,9.99-8.13,18.12-18.12,18.12H23.89c-9.99,0-18.12-8.13-18.12-18.12v-30.42c6.07,2.37,12.21,3.45,18.37,2.94,14.91-1.25,20.87-10.99,34.92-11.28,5.85-.12,11.39,1.44,16.57,4.07v34.7Z" stroke-width="0"/>
    </g>
  </g>
</svg>